<svg xmlns="http://www.w3.org/2000/svg" width="82" height="82" fill="none" viewBox="0 0 82 82"><path fill="#ea5d57" d="M73.8 20.5H61.5V8.2c0-4.51-3.69-8.2-8.2-8.2H28.7c-4.51 0-8.2 3.69-8.2 8.2v12.3H8.2c-4.51 0-8.2 3.69-8.2 8.2v24.6c0 4.51 3.69 8.2 8.2 8.2h12.3v12.3c0 4.51 3.69 8.2 8.2 8.2h24.6c4.51 0 8.2-3.69 8.2-8.2V61.5h12.3c4.51 0 8.2-3.69 8.2-8.2V28.7c0-4.51-3.69-8.2-8.2-8.2"/><path fill="#d2242c" d="M61.5 20.5h-41v41h41z"/><path fill="#1860aa" d="M53.3 61.5H28.7c-4.51 0-8.2-3.69-8.2-8.2V28.7c0-4.51 3.69-8.2 8.2-8.2h24.6c4.51 0 8.2 3.69 8.2 8.2v24.6c0 4.51-3.69 8.2-8.2 8.2"/></svg>