<svg xmlns="http://www.w3.org/2000/svg" width="100" height="100" fill="none" viewBox="0 0 100 100"><path fill="url(#a)" d="M0 0h100v100H0z"/><defs><clipPath id="b"><path fill="#fff" d="M0 0h10v10H0z"/></clipPath><pattern id="a" width="1" height="1" patternTransform="scale(10)" patternUnits="userSpaceOnUse" preserveAspectRatio="none" viewBox="0 0 10 10"><g clip-path="url(#b)"><path fill="#1961ac" d="M0 0h10v10H0z"/><path stroke="#14508f" stroke-linejoin="round" stroke-width="2" d="M3 5v4a2 2 0 0 1-2 2h-4"/><path stroke="#14508f" stroke-linejoin="round" stroke-width="2" d="M8 0v4a2 2 0 0 1-2 2H2"/><path stroke="#14508f" stroke-linejoin="round" stroke-width="2" d="M13-5v4a2 2 0 0 1-2 2H7M3-5v4a2 2 0 0 1-2 2h-4"/></g></pattern></defs></svg>